<svg xmlns="http://www.w3.org/2000/svg" xmlns:xlink="http://www.w3.org/1999/xlink" version="1.1" width="444.44444pt" height="444.44444pt" viewBox="0 0 444.44444 444.44444">
<defs>
<clipPath id="clip_1">
<path transform="matrix(2.7777777,0,0,-2.7777777,0,444.44444)" d="M0 160H160V0H0Z"/>
</clipPath>
</defs>
<g clip-path="url(#clip_1)">
<path transform="matrix(2.7777777,0,0,-2.7777777,302.3086,217.55609)" d="M0 0H-8.31V9.4C-8.82 8.58-9.44 7.74-10.15 6.91-13.62 2.87-17.81 1.22-19.51 .73-21.35 .2-23.22 .03-23.26 .03-24.12 0-24.95 0-25.79 0-28.46 0-31.01 .34-33.43 1.03-35.95 1.96-38.03 3.09-39.72 4.18-41.41 5.31-42.68 6.4-43.63 7.29-53.25 16.4-53.7 30.89-53.86 35.29-54.03 39.35-53.79 45.84-51.34 53.59-51.28 53.77-51.1 53.88-50.92 53.84-45.26 52.8-39.61 52.08-33.88 51.71-27.93 51.33-21.9 51.08-16.15 49.42-15.15 49.13-14.15 48.91-13.13 48.6L-18.39 40.42C-18.93 40.57-19.73 40.78-20.71 41.02-26.75 42.48-33.01 42.42-39.1 43.58-40.88 43.93-42.66 44.33-44.43 44.77-44.54 44.8-44.64 44.73-44.66 44.62-44.97 42.75-45.32 39.77-45.15 36.11-44.79 28.42-41.64 15.22-33.83 11.6-29.97 9.82-25.79 9.89-25.79 9.89-23.79 9.91-22.41 10.27-22.04 10.38-19.41 11.09-17.66 12.44-17.08 12.91-17.02 12.94-16.99 12.98-16.95 13.02-15.13 14.55-14.24 16.22-13.84 16.96-13.08 18.38-12.79 19.6-12.48 20.76-12.3 21.47-12.19 22.05-12.11 22.49-13.66 23.51-15.82 24.73-18.61 25.62-21.44 26.55-23.99 26.86-25.95 26.93-25.95 26.93-25.97 26.93-25.99 26.95-26.01 26.95-26.01 26.98-26.01 27L-25.99 27.02C-25.97 27.02-25.97 27.04-25.93 27.04-17.3 27.75-8.64 28.49 0 29.22ZM-8.62 40.24C-7.63 41.22-6.43 41.71-5.02 41.71-3.64 41.71-2.46 41.22-1.48 40.24-.5 39.25-.01 38.07-.01 36.7-.01 35.28-.5 34.08-1.48 33.1-2.46 32.12-3.64 31.63-5.02 31.63-6.43 31.63-7.63 32.12-8.62 33.1-9.6 34.08-10.09 35.28-10.09 36.7-10.09 38.07-9.6 39.25-8.62 40.24M3.38 63.3H-57.29C-60.63 63.3-63.34 60.59-63.34 57.25V-3.41C-63.34-6.75-60.63-9.45-57.29-9.45H3.38C6.72-9.45 9.43-6.75 9.43-3.41V57.25C9.43 60.59 6.72 63.3 3.38 63.3"/>
<path transform="matrix(2.7777777,0,0,-2.7777777,31.278332,309.0422)" d="M0 0H12.244V-1.515C12.244-3.16 11.939-4.696 11.33-6.122 10.721-7.549 9.894-8.761 8.847-9.761 7.801-10.76 6.557-11.544 5.115-12.111 3.672-12.679 2.134-12.962 .5-12.962-1.146-12.962-2.689-12.679-4.131-12.111-5.573-11.544-6.817-10.76-7.863-9.761-8.91-8.761-9.737-7.549-10.347-6.122-10.956-4.696-11.26-3.163-11.26-1.523-11.26 .117-10.956 1.653-10.347 3.084-9.737 4.516-8.91 5.729-7.863 6.723-6.817 7.717-5.573 8.501-4.131 9.074-2.689 9.646-1.146 9.933 .5 9.933 2.749 9.933 4.773 9.422 6.575 8.402 8.376 7.382 9.761 5.976 10.729 4.185L6.497 2.171C5.903 3.212 5.073 4.032 4.006 4.631 2.938 5.229 1.77 5.529 .5 5.529-1.468 5.529-3.137 4.857-4.506 3.514-5.874 2.171-6.559 .492-6.559-1.523-6.559-3.537-5.878-5.216-4.513-6.559-3.149-7.902-1.478-8.574 .5-8.574 1.968-8.574 3.311-8.111 4.529-7.184 5.747-6.258 6.612-5.112 7.122-3.748H0Z"/>
<path transform="matrix(2.7777777,0,0,-2.7777777,74.13944,295.5072)" d="M0 0H4.31L4.498-2.202C5.206-1.276 6.031-.633 6.973-.273 7.916 .086 9.162 .265 10.714 .265V-3.561C8.736-3.561 7.205-4.032 6.122-4.974 5.039-5.917 4.498-7.189 4.498-8.793V-17.585H0Z"/>
<path transform="matrix(2.7777777,0,0,-2.7777777,133.095,304.70414)" d="M0 0C-1.249 0-2.314-.367-3.194-1.101-4.074-1.835-4.633-2.827-4.873-4.076H4.888C4.638-2.827 4.076-1.835 3.202-1.101 2.327-.367 1.26 0 0 0M0 3.576C1.395 3.576 2.689 3.332 3.881 2.842 5.073 2.353 6.088 1.663 6.926 .773 7.764-.117 8.402-1.221 8.839-2.538 9.277-3.855 9.449-5.305 9.355-6.887H-4.873C-4.602-8.127-4.019-9.115-3.123-9.855-2.228-10.594-1.187-10.963 0-10.963 1.031-10.963 1.944-10.701 2.741-10.175 3.537-9.649 4.154-8.912 4.592-7.965L8.449-9.808C7.658-11.276 6.502-12.429 4.982-13.267 3.462-14.105 1.801-14.524 0-14.524-1.728-14.524-3.309-14.165-4.74-13.447-6.171-12.728-7.325-11.674-8.199-10.284-9.074-8.894-9.511-7.293-9.511-5.482-9.511-3.67-9.074-2.067-8.199-.672-7.325 .723-6.171 1.78-4.74 2.499-3.309 3.217-1.728 3.576 0 3.576"/>
<path transform="matrix(2.7777777,0,0,-2.7777777,192.52805,304.70414)" d="M0 0C-1.249 0-2.314-.367-3.194-1.101-4.074-1.835-4.633-2.827-4.873-4.076H4.888C4.638-2.827 4.076-1.835 3.202-1.101 2.327-.367 1.26 0 0 0M0 3.576C1.395 3.576 2.689 3.332 3.881 2.842 5.073 2.353 6.088 1.663 6.926 .773 7.764-.117 8.402-1.221 8.839-2.538 9.277-3.855 9.449-5.305 9.355-6.887H-4.873C-4.602-8.127-4.019-9.115-3.123-9.855-2.228-10.594-1.187-10.963 0-10.963 1.031-10.963 1.944-10.701 2.741-10.175 3.537-9.649 4.154-8.912 4.592-7.965L8.449-9.808C7.658-11.276 6.502-12.429 4.982-13.267 3.462-14.105 1.801-14.524 0-14.524-1.728-14.524-3.309-14.165-4.74-13.447-6.171-12.728-7.325-11.674-8.199-10.284-9.074-8.894-9.511-7.293-9.511-5.482-9.511-3.67-9.074-2.067-8.199-.672-7.325 .723-6.171 1.78-4.74 2.499-3.309 3.217-1.728 3.576 0 3.576"/>
<path transform="matrix(2.7777777,0,0,-2.7777777,261.85194,344.355)" d="M0 0V8.793C0 10.511-.297 11.812-.89 12.697-1.484 13.582-2.446 14.024-3.779 14.024-5.195 14.024-6.288 13.553-7.059 12.611-7.83 11.669-8.215 10.396-8.215 8.793V0H-12.713V17.585H-8.402L-8.215 15.008C-7.153 16.903-5.169 17.851-2.265 17.851 .13 17.851 1.853 17.08 2.905 15.539 3.957 13.998 4.482 11.749 4.482 8.793V0Z"/>
<path transform="matrix(2.7777777,0,0,-2.7777777,308.40055,334.46388)" d="M0 0C1.395 0 2.585 .494 3.569 1.484 4.552 2.473 5.044 3.725 5.044 5.24 5.044 6.755 4.555 8.004 3.576 8.988 2.598 9.972 1.406 10.464 0 10.464-1.416 10.464-2.61 9.974-3.584 8.996-4.558 8.017-5.044 6.765-5.044 5.24-5.044 3.714-4.558 2.46-3.584 1.476-2.61 .492-1.416 0 0 0M0-3.811C-1.728-3.811-3.311-3.451-4.748-2.733-6.184-2.015-7.34-.96-8.215 .429-9.089 1.819-9.527 3.42-9.527 5.232-9.527 7.043-9.089 8.647-8.215 10.042-7.34 11.437-6.184 12.494-4.748 13.212-3.311 13.931-1.728 14.29 0 14.29 1.718 14.29 3.295 13.931 4.732 13.212 6.169 12.494 7.327 11.437 8.207 10.042 9.087 8.647 9.527 7.043 9.527 5.232 9.527 3.42 9.087 1.819 8.207 .429 7.327-.96 6.169-2.015 4.732-2.733 3.295-3.451 1.718-3.811 0-3.811"/>
<path transform="matrix(2.7777777,0,0,-2.7777777,376.11943,295.5072)" d="M0 0H4.81L-1.39-17.585H-7.934L-14.103 0H-9.308L-4.654-13.65Z"/>
<path transform="matrix(2.7777777,0,0,-2.7777777,417.9383,334.46388)" d="M0 0C1.417 0 2.611 .492 3.584 1.476 4.559 2.46 5.044 3.714 5.044 5.24 5.044 6.765 4.559 8.017 3.584 8.996 2.611 9.974 1.417 10.464 0 10.464-1.406 10.464-2.589 9.974-3.553 8.996-4.515 8.017-4.998 6.762-4.998 5.232-4.998 3.722-4.513 2.473-3.545 1.484-2.577 .494-1.395 0 0 0M-1.218 14.29C.25 14.29 1.534 14.04 2.632 13.54 3.731 13.041 4.535 12.343 5.044 11.448L5.247 14.024H9.542V-3.561H5.247L5.044-.968C4.087-2.863 1.999-3.811-1.218-3.811-2.374-3.811-3.459-3.584-4.474-3.131-5.49-2.678-6.366-2.061-7.106-1.281-7.845-.5-8.431 .455-8.862 1.585-9.294 2.715-9.511 3.93-9.511 5.232-9.511 6.533-9.294 7.749-8.862 8.878-8.431 10.008-7.845 10.966-7.106 11.752-6.366 12.538-5.49 13.158-4.474 13.611-3.459 14.063-2.374 14.29-1.218 14.29"/>
<path transform="matrix(2.7777777,0,0,-2.7777777,0,444.44444)" d="M71.544 16.959H72.464V15.393H71.544Z"/>
<path transform="matrix(2.7777777,0,0,-2.7777777,35.170835,395.05805)" d="M0 0-5.456 8.09H-5.48V0H-6.401V9.197H-5.158L-.025 1.566H0V9.197H.92V0Z"/>
<path transform="matrix(2.7777777,0,0,-2.7777777,54.71389,372.99943)" d="M0 0-1.069 .907-2.162 0H-3.293L-1.491 1.554H-.671L1.106 0ZM1.591-4.498C1.591-3.02 .398-1.753-1.106-1.753-2.585-1.753-3.778-3.032-3.778-4.573-3.778-6.065-2.573-7.32-1.094-7.32 .435-7.32 1.591-6.052 1.591-4.498M-4.648-4.585C-4.648-2.585-3.032-.969-1.106-.969 .87-.969 2.461-2.635 2.461-4.536 2.461-6.512 .808-8.103-1.106-8.103-3.032-8.103-4.648-6.474-4.648-4.585"/>
<path transform="matrix(2.7777777,0,0,-2.7777777,79.40111,395.05805)" d="M0 0V3.791C0 5.319-.92 6.189-2.113 6.189-3.43 6.189-4.238 5.183-4.238 3.853V0H-5.108V6.798H-4.238V5.928H-4.213C-3.778 6.586-3.008 6.972-2.125 6.972-.249 6.972 .87 5.68 .87 3.791V0Z"/>
<path transform="matrix(2.7777777,0,0,-2.7777777,102.6725,385.63304)" d="M0 0C0 1.479-1.168 2.796-2.709 2.796-4.176 2.796-5.381 1.516-5.381 0-5.381-1.48-4.213-2.772-2.697-2.772-1.168-2.772 0-1.467 0 0M-.05-2.15H-.075C-.559-3.045-1.603-3.555-2.697-3.555-4.635-3.555-6.251-2.014-6.251-.025-6.251 1.963-4.648 3.579-2.697 3.579-1.603 3.579-.634 3.069-.075 2.187H-.05V3.405H.82V-2.673C.82-5.133-.969-6.065-2.498-6.065-4.176-6.065-5.518-5.146-5.978-3.567H-5.058C-4.611-4.673-3.691-5.282-2.51-5.282-.969-5.282-.05-4.238-.05-2.796Z"/>
<path transform="matrix(2.7777777,0,0,-2.7777777,133.26334,395.05805)" d="M0 0V3.791C0 5.319-.92 6.189-2.113 6.189-3.43 6.189-4.238 5.183-4.238 3.853V0H-5.108V6.798H-4.238V5.928H-4.213C-3.778 6.586-3.008 6.972-2.125 6.972-.249 6.972 .87 5.68 .87 3.791V0Z"/>
<path transform="matrix(2.7777777,0,0,-2.7777777,156.5336,385.63304)" d="M0 0C0 1.479-1.168 2.796-2.709 2.796-4.176 2.796-5.381 1.516-5.381 0-5.381-1.48-4.213-2.772-2.697-2.772-1.168-2.772 0-1.467 0 0M-.05-2.15H-.075C-.559-3.045-1.603-3.555-2.697-3.555-4.635-3.555-6.251-2.014-6.251-.025-6.251 1.963-4.648 3.579-2.697 3.579-1.603 3.579-.634 3.069-.075 2.187H-.05V3.405H.82V-2.673C.82-5.133-.969-6.065-2.498-6.065-4.176-6.065-5.518-5.146-5.978-3.567H-5.058C-4.611-4.673-3.691-5.282-2.51-5.282-.969-5.282-.05-4.238-.05-2.796Z"/>
<path transform="matrix(2.7777777,0,0,-2.7777777,177.4586,395.05805)" d="M0 0V3.791C0 5.319-.92 6.189-2.113 6.189-3.43 6.189-4.238 5.183-4.238 3.853V0H-5.108V9.197H-4.238V5.928H-4.213C-3.778 6.586-3.008 6.972-2.125 6.972-.249 6.972 .869 5.68 .869 3.791V0Z"/>
<path transform="matrix(2.7777777,0,0,-2.7777777,0,444.44444)" d="M66.396 24.577H67.26601V17.779H66.396ZM66.396 26.976H67.26601V25.411H66.396Z"/>
<path transform="matrix(2.7777777,0,0,-2.7777777,203.35332,372.99943)" d="M0 0-1.069 .907-2.163 0H-3.294L-1.491 1.554H-.672L1.106 0ZM1.541-4.076C1.292-2.709 .211-1.753-1.131-1.753-2.399-1.753-3.529-2.672-3.766-4.076ZM-3.766-4.859C-3.691-6.214-2.448-7.32-1.131-7.32-.075-7.32 .932-6.711 1.305-5.717H2.224C1.702-7.183 .335-8.103-1.119-8.103-3.045-8.103-4.661-6.537-4.661-4.548-4.661-2.572-3.032-.969-1.131-.969 .907-.969 2.436-2.721 2.436-4.598 2.436-4.685 2.423-4.772 2.423-4.859Z"/>
<path transform="matrix(2.7777777,0,0,-2.7777777,223.55165,377.86775)" d="M0 0C-1.466 0-2.709-1.242-2.709-2.796-2.709-4.312-1.528-5.568 .013-5.568 1.628-5.568 2.796-4.362 2.796-2.808 2.796-1.242 1.653 0 0 0M-3.529-8.575V.609H-2.66V-.584H-2.635C-2.001 .311-1.069 .784 .013 .784 2.075 .784 3.666-.795 3.666-2.771 3.666-4.772 2.101-6.35 .013-6.35-1.044-6.35-2.025-5.878-2.635-4.995H-2.66V-8.575Z"/>
<path transform="matrix(2.7777777,0,0,-2.7777777,254.14388,380.8353)" d="M0 0C-.05 .659-.46 1.068-1.02 1.068-1.591 1.068-2.051 .634-2.051 .05-2.051-.447-1.703-.795-.87-1.068 .783-1.616 1.106-2.274 1.106-3.244 1.106-4.487 .273-5.282-1.032-5.282-2.2-5.282-3.12-4.449-3.12-3.156V-3.107H-2.25C-2.237-4.014-1.765-4.499-1.032-4.499-.249-4.499 .236-4.064 .236-3.281 .236-2.622-.187-2.261-.97-1.976-2.163-1.541-2.921-1.206-2.921-.037-2.921 1.057-2.101 1.852-.982 1.852 .037 1.852 .869 1.081 .869 0Z"/>
<path transform="matrix(2.7777777,0,0,-2.7777777,274.51664,372.29164)" d="M0 0-.346 .609 1.741 1.752 2.077 1.123ZM-.774-.437-1.676 .329-2.6-.437H-3.554L-2.033 .875H-1.341L.16-.437ZM.831-4.753C.831-3.275-.362-2.007-1.866-2.007-3.345-2.007-4.538-3.287-4.538-4.828-4.538-6.32-3.332-7.575-1.853-7.575-.325-7.575 .831-6.307 .831-4.753M-5.408-4.84C-5.408-2.84-3.792-1.224-1.866-1.224 .11-1.224 1.701-2.89 1.701-4.791 1.701-6.767 .048-8.358-1.866-8.358-3.792-8.358-5.408-6.729-5.408-4.84"/>
<path transform="matrix(2.7777777,0,0,-2.7777777,293.05665,395.05805)" d="M0 0V9.197H.92V.832H4.723V0Z"/>
<path transform="matrix(2.7777777,0,0,-2.7777777,324.9569,385.495)" d="M0 0C0 1.479-1.193 2.746-2.697 2.746-4.176 2.746-5.369 1.466-5.369-.075-5.369-1.566-4.163-2.822-2.684-2.822-1.156-2.822 0-1.554 0 0M-6.239-.087C-6.239 1.913-4.623 3.529-2.697 3.529-.721 3.529 .87 1.864 .87-.038 .87-2.014-.783-3.605-2.697-3.605-4.623-3.605-6.239-1.976-6.239-.087"/>
<path transform="matrix(2.7777777,0,0,-2.7777777,345.22416,395.05805)" d="M0 0V3.791C0 5.319-.92 6.189-2.113 6.189-3.43 6.189-4.238 5.183-4.238 3.853V0H-5.108V6.798H-4.238V5.928H-4.213C-3.778 6.586-3.008 6.972-2.125 6.972-.249 6.972 .87 5.68 .87 3.791V0Z"/>
<path transform="matrix(2.7777777,0,0,-2.7777777,368.49555,385.63304)" d="M0 0C0 1.479-1.168 2.796-2.709 2.796-4.176 2.796-5.381 1.516-5.381 0-5.381-1.48-4.213-2.772-2.697-2.772-1.168-2.772 0-1.467 0 0M-.05-2.15H-.075C-.559-3.045-1.603-3.555-2.697-3.555-4.635-3.555-6.251-2.014-6.251-.025-6.251 1.963-4.648 3.579-2.697 3.579-1.603 3.579-.634 3.069-.075 2.187H-.05V3.405H.82V-2.673C.82-5.133-.969-6.065-2.498-6.065-4.176-6.065-5.518-5.146-5.978-3.567H-5.058C-4.611-4.673-3.691-5.282-2.51-5.282-.969-5.282-.05-4.238-.05-2.796Z"/>
<path transform="matrix(2.7777777,0,0,-2.7777777,395.42723,372.41194)" d="M0 0-1.802-4.225H1.765ZM3.455-8.153 2.125-5.058H-2.15L-3.492-8.153H-4.449L-.522 1.044H.509L4.462-8.153Z"/>
<path transform="matrix(2.7777777,0,0,-2.7777777,424.6361,395.05805)" d="M0 0V3.791C0 5.319-.92 6.189-2.113 6.189-3.43 6.189-4.238 5.183-4.238 3.853V0H-5.108V6.798H-4.238V5.928H-4.213C-3.778 6.586-3.008 6.972-2.125 6.972-.249 6.972 .87 5.68 .87 3.791V0Z"/>
</g>
</svg>
