<svg xmlns="http://www.w3.org/2000/svg" xmlns:xlink="http://www.w3.org/1999/xlink" version="1.1" width="694.4444pt" height="416.66667pt" viewBox="0 0 694.4444 416.66667">
<defs>
<clipPath id="clip_1">
<path transform="matrix(2.7777777,0,0,-2.7777777,0,416.66667)" d="M0 150H250V0H0Z"/>
</clipPath>
</defs>
<g clip-path="url(#clip_1)">
<path transform="matrix(2.7777777,0,0,-2.7777777,159.85388,276.06944)" d="M0 0H-7.53V8.52C-7.99 7.78-8.55 7.02-9.19 6.26-12.34 2.6-16.13 1.11-17.67 .66-19.34 .18-21.03 .04-21.07 .04-21.84 0-22.6 0-23.36 0-25.78 0-28.08 .32-30.27 .94-32.56 1.78-34.44 2.8-35.97 3.79-37.5 4.81-38.66 5.8-39.51 6.61-48.22 14.86-48.64 27.98-48.78 31.97-48.93 35.64-48.72 41.52-46.49 48.54-46.44 48.7-46.28 48.8-46.12 48.77-40.99 47.83-35.87 47.17-30.68 46.84-25.3 46.49-19.83 46.26-14.63 44.76-13.72 44.5-12.82 44.3-11.89 44.02L-16.65 36.61C-17.15 36.74-17.87 36.94-18.76 37.16-24.23 38.47-29.89 38.42-35.41 39.48-37.02 39.79-38.64 40.15-40.24 40.55-40.33 40.58-40.43 40.51-40.45 40.42-40.73 38.72-41.04 36.02-40.89 32.71-40.57 25.74-37.72 13.79-30.64 10.51-27.14 8.9-23.36 8.96-23.36 8.96-21.54 8.98-20.29 9.31-19.96 9.41-17.58 10.05-15.99 11.27-15.47 11.69-15.42 11.73-15.39 11.76-15.35 11.79-13.71 13.18-12.9 14.69-12.54 15.37-11.84 16.65-11.58 17.76-11.3 18.81-11.14 19.45-11.04 19.98-10.97 20.37-12.37 21.3-14.33 22.4-16.85 23.21-19.42 24.05-21.73 24.33-23.5 24.39-23.5 24.39-23.52 24.39-23.54 24.41-23.55 24.41-23.55 24.44-23.55 24.46L-23.54 24.47C-23.52 24.47-23.52 24.49-23.49 24.49-15.67 25.13-7.83 25.81 0 26.47ZM-7.8 36.44C-6.91 37.33-5.83 37.78-4.55 37.78-3.3 37.78-2.23 37.33-1.34 36.44-.45 35.55-.01 34.49-.01 33.24-.01 31.96-.45 30.87-1.34 29.98-2.23 29.09-3.3 28.65-4.55 28.65-5.83 28.65-6.91 29.09-7.8 29.98-8.69 30.87-9.14 31.96-9.14 33.24-9.14 34.49-8.69 35.55-7.8 36.44M3.06 57.33H-51.89C-54.91 57.33-57.36 54.88-57.36 51.86V-3.08C-57.36-6.11-54.91-8.56-51.89-8.56H3.06C6.09-8.56 8.54-6.11 8.54-3.08V51.86C8.54 54.88 6.09 57.33 3.06 57.33" fill="#1d5532"/>
<path transform="matrix(2.7777777,0,0,-2.7777777,247.8397,177.09888)" d="M0 0H13.22V-1.636C13.22-3.412 12.891-5.07 12.233-6.61 11.576-8.15 10.682-9.459 9.552-10.539 8.422-11.618 7.079-12.464 5.522-13.076 3.965-13.689 2.304-13.995 .54-13.995-1.237-13.995-2.903-13.689-4.46-13.076-6.017-12.464-7.36-11.618-8.49-10.539-9.62-9.459-10.513-8.15-11.171-6.61-11.828-5.07-12.157-3.415-12.157-1.644-12.157 .126-11.828 1.784-11.171 3.33-10.513 4.876-9.62 6.185-8.49 7.259-7.36 8.332-6.017 9.178-4.46 9.797-2.903 10.415-1.237 10.724 .54 10.724 2.968 10.724 5.154 10.173 7.099 9.072 9.044 7.97 10.539 6.452 11.584 4.519L7.014 2.344C6.374 3.468 5.478 4.353 4.325 4.999 3.173 5.646 1.911 5.969 .54 5.969-1.585 5.969-3.387 5.244-4.865 3.794-6.343 2.344-7.082 .531-7.082-1.644-7.082-3.819-6.346-5.632-4.873-7.082-3.4-8.532-1.596-9.257 .54-9.257 2.125-9.257 3.575-8.757 4.89-7.756 6.205-6.756 7.138-5.52 7.689-4.047H0Z" fill="#1d5532"/>
<path transform="matrix(2.7777777,0,0,-2.7777777,294.1158,162.48554)" d="M0 0H4.654L4.856-2.378C5.621-1.377 6.511-.683 7.529-.295 8.546 .093 9.892 .287 11.567 .287V-3.844C9.432-3.844 7.779-4.353 6.61-5.37 5.44-6.388 4.856-7.762 4.856-9.493V-18.986H0Z" fill="#1d5532"/>
<path transform="matrix(2.7777777,0,0,-2.7777777,357.76863,172.41529)" d="M0 0C-1.349 0-2.498-.396-3.448-1.189-4.398-1.981-5.002-3.052-5.261-4.401H5.278C5.008-3.052 4.401-1.981 3.457-1.189 2.512-.396 1.36 0 0 0M0 3.861C1.507 3.861 2.903 3.597 4.19 3.069 5.478 2.54 6.574 1.796 7.478 .835 8.383-.126 9.072-1.318 9.544-2.74 10.016-4.162 10.201-5.727 10.1-7.436H-5.261C-4.968-8.774-4.339-9.842-3.372-10.64-2.405-11.438-1.281-11.837 0-11.837 1.113-11.837 2.099-11.553 2.959-10.985 3.819-10.418 4.485-9.623 4.957-8.599L9.122-10.589C8.268-12.174 7.02-13.419 5.379-14.324 3.737-15.229 1.945-15.681 0-15.681-1.866-15.681-3.572-15.294-5.118-14.518-6.663-13.742-7.908-12.604-8.852-11.103-9.797-9.603-10.269-7.874-10.269-5.918-10.269-3.962-9.797-2.232-8.852-.725-7.908 .781-6.663 1.922-5.118 2.698-3.572 3.474-1.866 3.861 0 3.861" fill="#1d5532"/>
<path transform="matrix(2.7777777,0,0,-2.7777777,421.93666,172.41529)" d="M0 0C-1.349 0-2.498-.396-3.448-1.189-4.398-1.981-5.002-3.052-5.261-4.401H5.278C5.008-3.052 4.401-1.981 3.457-1.189 2.512-.396 1.36 0 0 0M0 3.861C1.507 3.861 2.903 3.597 4.19 3.069 5.478 2.54 6.574 1.796 7.478 .835 8.383-.126 9.072-1.318 9.544-2.74 10.016-4.162 10.201-5.727 10.1-7.436H-5.261C-4.968-8.774-4.339-9.842-3.372-10.64-2.405-11.438-1.281-11.837 0-11.837 1.113-11.837 2.099-11.553 2.959-10.985 3.819-10.418 4.485-9.623 4.957-8.599L9.122-10.589C8.268-12.174 7.02-13.419 5.379-14.324 3.737-15.229 1.945-15.681 0-15.681-1.866-15.681-3.572-15.294-5.118-14.518-6.663-13.742-7.908-12.604-8.852-11.103-9.797-9.603-10.269-7.874-10.269-5.918-10.269-3.962-9.797-2.232-8.852-.725-7.908 .781-6.663 1.922-5.118 2.698-3.572 3.474-1.866 3.861 0 3.861" fill="#1d5532"/>
<path transform="matrix(2.7777777,0,0,-2.7777777,496.78385,215.22528)" d="M0 0V9.493C0 11.348-.32 12.753-.961 13.709-1.602 14.664-2.641 15.142-4.081 15.142-5.609 15.142-6.789 14.633-7.621 13.616-8.454 12.598-8.869 11.224-8.869 9.493V0H-13.725V18.986H-9.072L-8.869 16.204C-7.723 18.25-5.581 19.273-2.445 19.273 .141 19.273 2.001 18.441 3.136 16.777 4.272 15.114 4.839 12.685 4.839 9.493V0Z" fill="#1d5532"/>
<path transform="matrix(2.7777777,0,0,-2.7777777,547.0411,204.5461)" d="M0 0C1.507 0 2.791 .534 3.853 1.602 4.915 2.67 5.446 4.022 5.446 5.657 5.446 7.293 4.918 8.642 3.861 9.704 2.805 10.766 1.518 11.297 0 11.297-1.529 11.297-2.818 10.769-3.87 9.712-4.921 8.656-5.446 7.304-5.446 5.657-5.446 4.01-4.921 2.656-3.87 1.593-2.818 .531-1.529 0 0 0M0-4.114C-1.866-4.114-3.575-3.726-5.126-2.951-6.677-2.175-7.925-1.037-8.869 .464-9.814 1.964-10.286 3.693-10.286 5.649-10.286 7.605-9.814 9.335-8.869 10.842-7.925 12.348-6.677 13.489-5.126 14.265-3.575 15.041-1.866 15.428 0 15.428 1.855 15.428 3.558 15.041 5.109 14.265 6.66 13.489 7.911 12.348 8.861 10.842 9.811 9.335 10.286 7.605 10.286 5.649 10.286 3.693 9.811 1.964 8.861 .464 7.911-1.037 6.66-2.175 5.109-2.951 3.558-3.726 1.855-4.114 0-4.114" fill="#1d5532"/>
<path transform="matrix(2.7777777,0,0,-2.7777777,620.1553,162.48554)" d="M0 0H5.193L-1.501-18.986H-8.566L-15.226 0H-10.05L-5.025-14.737Z" fill="#1d5532"/>
<path transform="matrix(2.7777777,0,0,-2.7777777,665.3061,204.5461)" d="M0 0C1.529 0 2.819 .531 3.87 1.593 4.922 2.656 5.446 4.01 5.446 5.657 5.446 7.304 4.922 8.656 3.87 9.712 2.819 10.769 1.529 11.297 0 11.297-1.518 11.297-2.796 10.769-3.836 9.712-4.875 8.656-5.396 7.301-5.396 5.649-5.396 4.019-4.873 2.67-3.828 1.602-2.782 .534-1.506 0 0 0M-1.315 15.428C.27 15.428 1.656 15.159 2.841 14.619 4.028 14.08 4.897 13.326 5.446 12.36L5.666 15.142H10.302V-3.844H5.666L5.446-1.045C4.413-3.092 2.158-4.114-1.315-4.114-2.563-4.114-3.735-3.87-4.831-3.381-5.927-2.892-6.873-2.226-7.672-1.383-8.47-.54-9.102 .492-9.569 1.711-10.035 2.931-10.268 4.243-10.268 5.649-10.268 7.054-10.035 8.366-9.569 9.586-9.102 10.805-8.47 11.839-7.672 12.688-6.873 13.537-5.927 14.206-4.831 14.695-3.735 15.184-2.563 15.428-1.315 15.428" fill="#1d5532"/>
<path transform="matrix(2.7777777,0,0,-2.7777777,236.07444,261.46998)" d="M0 0-5.895 8.741H-5.921V0H-6.916V9.937H-5.573L-.027 1.692H0V9.937H.994V0Z"/>
<path transform="matrix(2.7777777,0,0,-2.7777777,257.19,237.63639)" d="M0 0-1.155 .98-2.336 0H-3.558L-1.611 1.679H-.725L1.195 0ZM1.719-4.86C1.719-3.263 .43-1.894-1.195-1.894-2.793-1.894-4.082-3.276-4.082-4.941-4.082-6.553-2.78-7.909-1.182-7.909 .47-7.909 1.719-6.539 1.719-4.86M-5.022-4.954C-5.022-2.793-3.276-1.047-1.195-1.047 .94-1.047 2.659-2.847 2.659-4.901 2.659-7.036 .873-8.755-1.195-8.755-3.276-8.755-5.022-6.995-5.022-4.954"/>
<path transform="matrix(2.7777777,0,0,-2.7777777,283.86363,261.46998)" d="M0 0V4.096C0 5.747-.994 6.687-2.283 6.687-3.706 6.687-4.579 5.6-4.579 4.163V0H-5.519V7.345H-4.579V6.405H-4.552C-4.082 7.116-3.25 7.533-2.296 7.533-.269 7.533 .94 6.137 .94 4.096V0Z"/>
<path transform="matrix(2.7777777,0,0,-2.7777777,309.00749,251.28665)" d="M0 0C0 1.598-1.262 3.021-2.927 3.021-4.512 3.021-5.814 1.638-5.814 0-5.814-1.599-4.552-2.995-2.914-2.995-1.262-2.995 0-1.585 0 0M-.054-2.323H-.081C-.604-3.29-1.732-3.841-2.914-3.841-5.008-3.841-6.754-2.176-6.754-.027-6.754 2.121-5.022 3.867-2.914 3.867-1.732 3.867-.685 3.316-.081 2.363H-.054V3.679H.886V-2.888C.886-5.546-1.047-6.553-2.699-6.553-4.512-6.553-5.962-5.56-6.458-3.854H-5.465C-4.982-5.049-3.988-5.707-2.712-5.707-1.047-5.707-.054-4.579-.054-3.021Z"/>
<path transform="matrix(2.7777777,0,0,-2.7777777,342.06,261.46998)" d="M0 0V4.096C0 5.747-.994 6.687-2.283 6.687-3.706 6.687-4.579 5.6-4.579 4.163V0H-5.519V7.345H-4.579V6.405H-4.552C-4.082 7.116-3.25 7.533-2.296 7.533-.269 7.533 .94 6.137 .94 4.096V0Z"/>
<path transform="matrix(2.7777777,0,0,-2.7777777,367.20249,251.28665)" d="M0 0C0 1.598-1.262 3.021-2.927 3.021-4.512 3.021-5.814 1.638-5.814 0-5.814-1.599-4.552-2.995-2.914-2.995-1.262-2.995 0-1.585 0 0M-.054-2.323H-.081C-.604-3.29-1.732-3.841-2.914-3.841-5.008-3.841-6.754-2.176-6.754-.027-6.754 2.121-5.022 3.867-2.914 3.867-1.732 3.867-.685 3.316-.081 2.363H-.054V3.679H.886V-2.888C.886-5.546-1.047-6.553-2.699-6.553-4.512-6.553-5.962-5.56-6.458-3.854H-5.465C-4.982-5.049-3.988-5.707-2.712-5.707-1.047-5.707-.054-4.579-.054-3.021Z"/>
<path transform="matrix(2.7777777,0,0,-2.7777777,389.8111,261.46998)" d="M0 0V4.096C0 5.747-.994 6.687-2.283 6.687-3.706 6.687-4.579 5.6-4.579 4.163V0H-5.519V9.937H-4.579V6.405H-4.552C-4.082 7.116-3.25 7.533-2.296 7.533-.269 7.533 .939 6.137 .939 4.096V0Z"/>
<path transform="matrix(2.7777777,0,0,-2.7777777,0,416.66667)" d="M143.045 63.216H143.985V55.871H143.045ZM143.045 65.807H143.985V64.116H143.045Z"/>
<path transform="matrix(2.7777777,0,0,-2.7777777,417.7897,237.63639)" d="M0 0-1.155 .98-2.337 0H-3.559L-1.611 1.679H-.726L1.195 0ZM1.665-4.404C1.396-2.927 .228-1.894-1.222-1.894-2.592-1.894-3.813-2.887-4.069-4.404ZM-4.069-5.25C-3.988-6.714-2.646-7.909-1.222-7.909-.081-7.909 1.007-7.251 1.41-6.177H2.403C1.839-7.761 .362-8.755-1.209-8.755-3.29-8.755-5.036-7.062-5.036-4.914-5.036-2.779-3.276-1.047-1.222-1.047 .98-1.047 2.632-2.94 2.632-4.968 2.632-5.062 2.618-5.156 2.618-5.25Z"/>
<path transform="matrix(2.7777777,0,0,-2.7777777,439.61305,242.8964)" d="M0 0C-1.584 0-2.927-1.342-2.927-3.021-2.927-4.659-1.651-6.016 .014-6.016 1.759-6.016 3.021-4.713 3.021-3.034 3.021-1.342 1.786 0 0 0M-3.813-9.265V.658H-2.874V-.631H-2.847C-2.162 .336-1.155 .847 .014 .847 2.242 .847 3.961-.859 3.961-2.994 3.961-5.156 2.27-6.861 .014-6.861-1.128-6.861-2.188-6.351-2.847-5.397H-2.874V-9.265Z"/>
<path transform="matrix(2.7777777,0,0,-2.7777777,472.6672,246.10277)" d="M0 0C-.054 .712-.497 1.154-1.102 1.154-1.719 1.154-2.216 .685-2.216 .054-2.216-.483-1.84-.859-.94-1.154 .846-1.746 1.195-2.457 1.195-3.505 1.195-4.848 .295-5.707-1.115-5.707-2.377-5.707-3.371-4.807-3.371-3.41V-3.357H-2.431C-2.417-4.337-1.907-4.861-1.115-4.861-.269-4.861 .255-4.391 .255-3.545 .255-2.833-.202-2.443-1.048-2.135-2.337-1.665-3.156-1.303-3.156-.04-3.156 1.142-2.27 2.001-1.061 2.001 .04 2.001 .939 1.168 .939 0Z"/>
<path transform="matrix(2.7777777,0,0,-2.7777777,494.67918,236.87168)" d="M0 0-.374 .658 1.881 1.893 2.244 1.214ZM-.836-.472-1.811 .356-2.809-.472H-3.84L-2.197 .945H-1.448L.173-.472ZM.898-5.136C.898-3.538-.391-2.169-2.016-2.169-3.614-2.169-4.903-3.552-4.903-5.217-4.903-6.828-3.6-8.185-2.002-8.185-.351-8.185 .898-6.814 .898-5.136M-5.843-5.229C-5.843-3.068-4.097-1.322-2.016-1.322 .119-1.322 1.838-3.122 1.838-5.177 1.838-7.311 .052-9.03-2.016-9.03-4.097-9.03-5.843-7.27-5.843-5.229"/>
<path transform="matrix(2.7777777,0,0,-2.7777777,514.7108,261.46998)" d="M0 0V9.937H.994V.899H5.103V0Z"/>
<path transform="matrix(2.7777777,0,0,-2.7777777,549.17807,251.1375)" d="M0 0C0 1.598-1.289 2.967-2.914 2.967-4.512 2.967-5.801 1.584-5.801-.081-5.801-1.692-4.498-3.049-2.9-3.049-1.249-3.049 0-1.679 0 0M-6.741-.094C-6.741 2.067-4.995 3.813-2.914 3.813-.779 3.813 .94 2.014 .94-.041 .94-2.176-.846-3.895-2.914-3.895-4.995-3.895-6.741-2.135-6.741-.094"/>
<path transform="matrix(2.7777777,0,0,-2.7777777,571.0761,261.46998)" d="M0 0V4.096C0 5.747-.994 6.687-2.283 6.687-3.706 6.687-4.579 5.6-4.579 4.163V0H-5.519V7.345H-4.579V6.405H-4.552C-4.082 7.116-3.25 7.533-2.296 7.533-.269 7.533 .94 6.137 .94 4.096V0Z"/>
<path transform="matrix(2.7777777,0,0,-2.7777777,596.22,251.28665)" d="M0 0C0 1.598-1.262 3.021-2.927 3.021-4.512 3.021-5.814 1.638-5.814 0-5.814-1.599-4.552-2.995-2.914-2.995-1.262-2.995 0-1.585 0 0M-.054-2.323H-.081C-.604-3.29-1.732-3.841-2.914-3.841-5.008-3.841-6.754-2.176-6.754-.027-6.754 2.121-5.022 3.867-2.914 3.867-1.732 3.867-.685 3.316-.081 2.363H-.054V3.679H.886V-2.888C.886-5.546-1.047-6.553-2.699-6.553-4.512-6.553-5.962-5.56-6.458-3.854H-5.465C-4.982-5.049-3.988-5.707-2.712-5.707-1.047-5.707-.054-4.579-.054-3.021Z"/>
<path transform="matrix(2.7777777,0,0,-2.7777777,625.3186,237.00167)" d="M0 0-1.947-4.565H1.907ZM3.733-8.809 2.296-5.465H-2.323L-3.773-8.809H-4.807L-.564 1.128H.55L4.821-8.809Z"/>
<path transform="matrix(2.7777777,0,0,-2.7777777,656.87808,261.46998)" d="M0 0V4.096C0 5.747-.994 6.687-2.283 6.687-3.706 6.687-4.579 5.6-4.579 4.163V0H-5.519V7.345H-4.579V6.405H-4.552C-4.082 7.116-3.25 7.533-2.296 7.533-.269 7.533 .94 6.137 .94 4.096V0Z"/>
<path transform="matrix(2.7777777,0,0,-2.7777777,0,416.66667)" d="M148.607 54.675H149.601V52.982999H148.607Z"/>
</g>
</svg>
