<svg xmlns="http://www.w3.org/2000/svg" xmlns:xlink="http://www.w3.org/1999/xlink" version="1.1" width="444.44444pt" height="444.44444pt" viewBox="0 0 444.44444 444.44444">
<defs>
<clipPath id="clip_1">
<path transform="matrix(2.7777777,0,0,-2.7777777,0,444.44444)" d="M0 160H160V0H0Z"/>
</clipPath>
</defs>
<g clip-path="url(#clip_1)">
<path transform="matrix(2.7777777,0,0,-2.7777777,302.30415,246.40137)" d="M0 0H-8.31V9.41C-8.82 8.59-9.44 7.75-10.15 6.91-13.62 2.88-17.8 1.22-19.51 .73-21.35 .2-23.22 .04-23.26 .04-24.11 0-24.95 0-25.79 0-28.46 0-31.01 .35-33.42 1.04-35.95 1.97-38.02 3.1-39.72 4.19-41.41 5.31-42.68 6.41-43.62 7.3-53.24 16.41-53.7 30.9-53.86 35.3-54.03 39.35-53.79 45.85-51.33 53.59-51.28 53.77-51.1 53.88-50.92 53.85-45.26 52.81-39.61 52.08-33.88 51.72-27.93 51.34-21.9 51.08-16.15 49.43-15.15 49.14-14.15 48.92-13.13 48.61L-18.39 40.43C-18.93 40.57-19.73 40.79-20.71 41.03-26.75 42.48-33.01 42.43-39.1 43.59-40.88 43.94-42.66 44.34-44.42 44.77-44.53 44.81-44.64 44.74-44.66 44.63-44.97 42.75-45.32 39.77-45.15 36.12-44.79 28.43-41.64 15.22-33.82 11.61-29.97 9.82-25.79 9.9-25.79 9.9-23.79 9.91-22.4 10.28-22.04 10.39-19.4 11.1-17.66 12.44-17.08 12.91-17.02 12.95-16.99 12.99-16.95 13.02-15.13 14.55-14.24 16.22-13.84 16.97-13.08 18.39-12.79 19.61-12.48 20.77-12.29 21.48-12.18 22.06-12.11 22.5-13.66 23.52-15.82 24.73-18.6 25.63-21.44 26.55-23.99 26.86-25.95 26.93-25.95 26.93-25.97 26.93-25.99 26.95-26 26.95-26 26.99-26 27.01L-25.99 27.03C-25.97 27.03-25.97 27.04-25.93 27.04-17.29 27.75-8.64 28.5 0 29.23ZM-8.61 40.24C-7.63 41.22-6.43 41.72-5.02 41.72-3.64 41.72-2.46 41.22-1.48 40.24-.5 39.26-.01 38.08-.01 36.7-.01 35.29-.5 34.09-1.48 33.11-2.46 32.12-3.64 31.63-5.02 31.63-6.43 31.63-7.63 32.12-8.61 33.11-9.6 34.09-10.09 35.29-10.09 36.7-10.09 38.08-9.6 39.26-8.61 40.24M3.38 63.3H-57.29C-60.63 63.3-63.34 60.6-63.34 57.26V-3.4C-63.34-6.74-60.63-9.45-57.29-9.45H3.38C6.72-9.45 9.43-6.74 9.43-3.4V57.26C9.43 60.6 6.72 63.3 3.38 63.3" fill="#1d5532"/>
<path transform="matrix(2.7777777,0,0,-2.7777777,31.278332,337.86973)" d="M0 0H12.244V-1.515C12.244-3.16 11.939-4.696 11.33-6.122 10.721-7.549 9.894-8.761 8.847-9.761 7.801-10.76 6.557-11.544 5.115-12.111 3.672-12.679 2.134-12.962 .5-12.962-1.146-12.962-2.689-12.679-4.131-12.111-5.573-11.544-6.817-10.76-7.863-9.761-8.91-8.761-9.737-7.549-10.347-6.122-10.956-4.696-11.26-3.163-11.26-1.523-11.26 .117-10.956 1.653-10.347 3.084-9.737 4.516-8.91 5.729-7.863 6.723-6.817 7.717-5.573 8.501-4.131 9.074-2.689 9.646-1.146 9.933 .5 9.933 2.749 9.933 4.773 9.422 6.575 8.402 8.376 7.382 9.761 5.976 10.729 4.185L6.497 2.171C5.903 3.212 5.073 4.032 4.006 4.631 2.938 5.229 1.77 5.529 .5 5.529-1.468 5.529-3.137 4.857-4.506 3.514-5.874 2.171-6.559 .492-6.559-1.523-6.559-3.537-5.878-5.216-4.513-6.559-3.149-7.902-1.478-8.574 .5-8.574 1.968-8.574 3.311-8.111 4.529-7.184 5.747-6.257 6.612-5.112 7.122-3.748H0Z" fill="#1d5532"/>
<path transform="matrix(2.7777777,0,0,-2.7777777,74.13944,324.33445)" d="M0 0H4.31L4.498-2.202C5.206-1.276 6.031-.633 6.973-.273 7.916 .086 9.162 .266 10.714 .266V-3.561C8.736-3.561 7.205-4.032 6.122-4.974 5.039-5.917 4.498-7.189 4.498-8.793V-17.585H0Z" fill="#1d5532"/>
<path transform="matrix(2.7777777,0,0,-2.7777777,133.095,333.5314)" d="M0 0C-1.249 0-2.314-.367-3.194-1.101-4.074-1.835-4.633-2.827-4.873-4.076H4.888C4.638-2.827 4.076-1.835 3.202-1.101 2.327-.367 1.26 0 0 0M0 3.576C1.395 3.576 2.689 3.332 3.881 2.842 5.073 2.353 6.088 1.663 6.926 .773 7.764-.117 8.402-1.221 8.839-2.538 9.277-3.855 9.449-5.305 9.355-6.887H-4.873C-4.602-8.127-4.019-9.115-3.123-9.855-2.228-10.594-1.187-10.963 0-10.963 1.031-10.963 1.944-10.701 2.741-10.175 3.537-9.649 4.154-8.912 4.592-7.965L8.449-9.808C7.658-11.276 6.502-12.429 4.982-13.267 3.462-14.105 1.801-14.524 0-14.524-1.728-14.524-3.309-14.165-4.74-13.447-6.171-12.728-7.325-11.674-8.199-10.284-9.074-8.894-9.511-7.293-9.511-5.482-9.511-3.67-9.074-2.067-8.199-.672-7.325 .723-6.171 1.78-4.74 2.499-3.309 3.217-1.728 3.576 0 3.576" fill="#1d5532"/>
<path transform="matrix(2.7777777,0,0,-2.7777777,192.52805,333.5314)" d="M0 0C-1.249 0-2.314-.367-3.194-1.101-4.074-1.835-4.633-2.827-4.873-4.076H4.888C4.638-2.827 4.076-1.835 3.202-1.101 2.327-.367 1.26 0 0 0M0 3.576C1.395 3.576 2.689 3.332 3.881 2.842 5.073 2.353 6.088 1.663 6.926 .773 7.764-.117 8.402-1.221 8.839-2.538 9.277-3.855 9.449-5.305 9.355-6.887H-4.873C-4.602-8.127-4.019-9.115-3.123-9.855-2.228-10.594-1.187-10.963 0-10.963 1.031-10.963 1.944-10.701 2.741-10.175 3.537-9.649 4.154-8.912 4.592-7.965L8.449-9.808C7.658-11.276 6.502-12.429 4.982-13.267 3.462-14.105 1.801-14.524 0-14.524-1.728-14.524-3.309-14.165-4.74-13.447-6.171-12.728-7.325-11.674-8.199-10.284-9.074-8.894-9.511-7.293-9.511-5.482-9.511-3.67-9.074-2.067-8.199-.672-7.325 .723-6.171 1.78-4.74 2.499-3.309 3.217-1.728 3.576 0 3.576" fill="#1d5532"/>
<path transform="matrix(2.7777777,0,0,-2.7777777,261.85194,373.1822)" d="M0 0V8.793C0 10.511-.297 11.812-.89 12.697-1.484 13.582-2.446 14.024-3.779 14.024-5.195 14.024-6.288 13.553-7.059 12.611-7.83 11.669-8.215 10.396-8.215 8.793V0H-12.713V17.585H-8.402L-8.215 15.008C-7.153 16.903-5.169 17.851-2.265 17.851 .13 17.851 1.853 17.08 2.905 15.539 3.957 13.998 4.482 11.749 4.482 8.793V0Z" fill="#1d5532"/>
<path transform="matrix(2.7777777,0,0,-2.7777777,308.40055,363.29136)" d="M0 0C1.395 0 2.585 .494 3.569 1.484 4.552 2.473 5.044 3.725 5.044 5.24 5.044 6.755 4.555 8.004 3.576 8.988 2.598 9.972 1.406 10.464 0 10.464-1.416 10.464-2.61 9.974-3.584 8.996-4.558 8.017-5.044 6.765-5.044 5.24-5.044 3.714-4.558 2.46-3.584 1.476-2.61 .492-1.416 0 0 0M0-3.811C-1.728-3.811-3.311-3.451-4.748-2.733-6.184-2.015-7.34-.96-8.215 .429-9.089 1.819-9.527 3.42-9.527 5.232-9.527 7.043-9.089 8.647-8.215 10.042-7.34 11.437-6.184 12.494-4.748 13.212-3.311 13.931-1.728 14.29 0 14.29 1.718 14.29 3.295 13.931 4.732 13.212 6.169 12.494 7.327 11.437 8.207 10.042 9.087 8.647 9.527 7.043 9.527 5.232 9.527 3.42 9.087 1.819 8.207 .429 7.327-.96 6.169-2.015 4.732-2.733 3.295-3.451 1.718-3.811 0-3.811" fill="#1d5532"/>
<path transform="matrix(2.7777777,0,0,-2.7777777,376.11943,324.33445)" d="M0 0H4.81L-1.39-17.585H-7.934L-14.103 0H-9.308L-4.654-13.65Z" fill="#1d5532"/>
<path transform="matrix(2.7777777,0,0,-2.7777777,417.9383,363.29136)" d="M0 0C1.417 0 2.611 .492 3.584 1.476 4.559 2.46 5.044 3.714 5.044 5.24 5.044 6.765 4.559 8.017 3.584 8.996 2.611 9.974 1.417 10.464 0 10.464-1.406 10.464-2.589 9.974-3.553 8.996-4.515 8.017-4.998 6.762-4.998 5.232-4.998 3.722-4.513 2.473-3.545 1.484-2.577 .494-1.395 0 0 0M-1.218 14.29C.25 14.29 1.534 14.04 2.632 13.54 3.731 13.041 4.535 12.343 5.044 11.448L5.247 14.024H9.542V-3.561H5.247L5.044-.968C4.087-2.863 1.999-3.811-1.218-3.811-2.374-3.811-3.459-3.584-4.474-3.131-5.49-2.678-6.366-2.062-7.106-1.281-7.845-.5-8.431 .455-8.862 1.585-9.294 2.715-9.511 3.93-9.511 5.232-9.511 6.533-9.294 7.749-8.862 8.878-8.431 10.008-7.845 10.966-7.106 11.752-6.366 12.538-5.49 13.158-4.474 13.611-3.459 14.063-2.374 14.29-1.218 14.29" fill="#1d5532"/>
</g>
</svg>
