<svg xmlns="http://www.w3.org/2000/svg" xmlns:xlink="http://www.w3.org/1999/xlink" version="1.1" width="694.4444pt" height="416.66667pt" viewBox="0 0 694.4444 416.66667">
<defs>
<clipPath id="clip_1">
<path transform="matrix(2.7777777,0,0,-2.7777777,0,416.66667)" d="M0 150H250V0H0Z"/>
</clipPath>
</defs>
<g clip-path="url(#clip_1)">
<path transform="matrix(2.7777777,0,0,-2.7777777,109.492778,197.44445)" d="M0 0C-.63-.63-1.37-.94-2.25-.94-3.14-.94-3.9-.63-4.53 0-5.15 .62-5.46 1.38-5.46 2.28-5.46 3.15-5.15 3.9-4.53 4.52-3.9 5.15-3.14 5.46-2.25 5.46-1.37 5.46-.63 5.15 0 4.52 .62 3.9 .93 3.15 .93 2.28 .93 1.38 .62 .62 0 0M.93-21H-4.34V-15.03C-4.66-15.55-5.05-16.08-5.5-16.61-7.7-19.17-10.36-20.22-11.44-20.53-12.61-20.87-13.79-20.97-13.82-20.97-14.36-21-14.89-21-15.42-21-17.11-21-18.73-20.78-20.26-20.34-21.87-19.75-23.18-19.04-24.25-18.34-25.33-17.63-26.13-16.94-26.73-16.37-32.83-10.59-33.12-1.4-33.22 1.39-33.33 3.96-33.18 8.08-31.62 12.99-31.59 13.1-31.47 13.17-31.36 13.15-27.77 12.49-24.18 12.03-20.55 11.8-16.78 11.56-12.95 11.4-9.31 10.35-8.67 10.16-8.04 10.03-7.39 9.83L-10.73 4.64C-11.07 4.73-11.58 4.87-12.2 5.02-16.03 5.94-20 5.91-23.86 6.65-24.99 6.87-26.12 7.12-27.24 7.4-27.31 7.42-27.38 7.37-27.39 7.3-27.59 6.12-27.8 4.22-27.7 1.91-27.47-2.97-25.48-11.34-20.52-13.64-18.07-14.77-15.42-14.72-15.42-14.72-14.15-14.71-13.27-14.48-13.04-14.41-11.37-13.96-10.26-13.11-9.9-12.81-9.86-12.79-9.84-12.76-9.81-12.74-8.66-11.77-8.1-10.71-7.84-10.24-7.36-9.34-7.17-8.56-6.98-7.83-6.86-7.38-6.79-7.01-6.75-6.73-7.73-6.08-9.1-5.31-10.86-4.75-12.66-4.16-14.28-3.96-15.52-3.92-15.52-3.92-15.53-3.92-15.55-3.91-15.56-3.91-15.56-3.88-15.56-3.87L-15.55-3.86C-15.53-3.86-15.53-3.85-15.51-3.85-10.03-3.4-4.54-2.93 .93-2.46ZM3.08 19.15H-35.4C-37.52 19.15-39.23 17.43-39.23 15.31V-23.16C-39.23-25.27-37.52-26.99-35.4-26.99H3.08C5.2-26.99 6.92-25.27 6.92-23.16V15.31C6.92 17.43 5.2 19.15 3.08 19.15" fill="#1d5532"/>
<path transform="matrix(2.7777777,0,0,-2.7777777,192.15389,203.22415)" d="M0 0H14.87V-1.84C14.87-3.838 14.5-5.703 13.76-7.435 13.021-9.167 12.015-10.64 10.745-11.854 9.474-13.068 7.963-14.02 6.212-14.709 4.46-15.398 2.592-15.742 .607-15.742-1.391-15.742-3.265-15.398-5.017-14.709-6.768-14.02-8.279-13.068-9.55-11.854-10.82-10.64-11.826-9.167-12.565-7.435-13.305-5.703-13.675-3.841-13.675-1.849-13.675 .142-13.305 2.007-12.565 3.746-11.826 5.484-10.82 6.957-9.55 8.165-8.279 9.372-6.768 10.324-5.017 11.02-3.265 11.715-1.391 12.063 .607 12.063 3.338 12.063 5.797 11.443 7.985 10.204 10.173 8.965 11.854 7.258 13.03 5.083L7.89 2.636C7.169 3.9 6.161 4.896 4.865 5.624 3.569 6.35 2.15 6.714 .607 6.714-1.783 6.714-3.809 5.899-5.472 4.267-7.134 2.636-7.966 .597-7.966-1.849-7.966-4.296-7.138-6.335-5.481-7.966-3.825-9.597-1.795-10.413 .607-10.413 2.39-10.413 4.021-9.85 5.5-8.725 6.98-7.599 8.03-6.209 8.649-4.552H0Z" fill="#1d5532"/>
<path transform="matrix(2.7777777,0,0,-2.7777777,244.20665,186.78639)" d="M0 0H5.235L5.462-2.674C6.323-1.549 7.324-.768 8.469-.332 9.613 .104 11.127 .322 13.011 .322V-4.324C10.609-4.324 8.75-4.897 7.435-6.041 6.12-7.185 5.462-8.731 5.462-10.678V-21.356H0Z" fill="#1d5532"/>
<path transform="matrix(2.7777777,0,0,-2.7777777,315.80555,197.95555)" d="M0 0C-1.517 0-2.81-.446-3.879-1.337-4.947-2.229-5.626-3.433-5.918-4.95H5.937C5.633-3.433 4.95-2.229 3.888-1.337 2.826-.446 1.53 0 0 0M0 4.343C1.695 4.343 3.265 4.046 4.713 3.452 6.161 2.857 7.394 2.02 8.412 .939 9.429-.142 10.204-1.483 10.735-3.082 11.266-4.682 11.475-6.442 11.361-8.364H-5.918C-5.589-9.869-4.881-11.07-3.793-11.968-2.706-12.866-1.441-13.315 0-13.315 1.252-13.315 2.361-12.995 3.329-12.357 4.296-11.719 5.045-10.824 5.576-9.673L10.261-11.911C9.3-13.694 7.897-15.095 6.05-16.112 4.204-17.13 2.188-17.639 0-17.639-2.099-17.639-4.018-17.203-5.756-16.33-7.495-15.458-8.895-14.178-9.957-12.49-11.02-10.801-11.551-8.857-11.551-6.657-11.551-4.457-11.02-2.51-9.957-.816-8.895 .879-7.495 2.162-5.756 3.035-4.018 3.907-2.099 4.343 0 4.343" fill="#1d5532"/>
<path transform="matrix(2.7777777,0,0,-2.7777777,387.98387,197.95555)" d="M0 0C-1.517 0-2.81-.446-3.879-1.337-4.947-2.229-5.626-3.433-5.918-4.95H5.937C5.633-3.433 4.95-2.229 3.888-1.337 2.826-.446 1.53 0 0 0M0 4.343C1.695 4.343 3.265 4.046 4.713 3.452 6.161 2.857 7.394 2.02 8.412 .939 9.429-.142 10.204-1.483 10.735-3.082 11.266-4.682 11.475-6.442 11.361-8.364H-5.918C-5.589-9.869-4.881-11.07-3.793-11.968-2.706-12.866-1.441-13.315 0-13.315 1.252-13.315 2.361-12.995 3.329-12.357 4.296-11.719 5.045-10.824 5.576-9.673L10.261-11.911C9.3-13.694 7.897-15.095 6.05-16.112 4.204-17.13 2.188-17.639 0-17.639-2.099-17.639-4.018-17.203-5.756-16.33-7.495-15.458-8.895-14.178-9.957-12.49-11.02-10.801-11.551-8.857-11.551-6.657-11.551-4.457-11.02-2.51-9.957-.816-8.895 .879-7.495 2.162-5.756 3.035-4.018 3.907-2.099 4.343 0 4.343" fill="#1d5532"/>
<path transform="matrix(2.7777777,0,0,-2.7777777,472.17445,246.10973)" d="M0 0V10.678C0 12.765-.36 14.345-1.081 15.42-1.802 16.494-2.971 17.032-4.59 17.032-6.309 17.032-7.637 16.46-8.573 15.316-9.509 14.171-9.976 12.625-9.976 10.678V0H-15.439V21.356H-10.204L-9.976 18.227C-8.687 20.528-6.278 21.679-2.75 21.679 .158 21.679 2.25 20.743 3.528 18.872 4.805 17 5.443 14.269 5.443 10.678V0Z" fill="#1d5532"/>
<path transform="matrix(2.7777777,0,0,-2.7777777,528.70529,234.09749)" d="M0 0C1.695 0 3.139 .6 4.334 1.802 5.529 3.003 6.126 4.524 6.126 6.363 6.126 8.203 5.532 9.72 4.343 10.915 3.155 12.11 1.707 12.708 0 12.708-1.719 12.708-3.17 12.113-4.353 10.925-5.535 9.736-6.126 8.215-6.126 6.363-6.126 4.511-5.535 2.987-4.353 1.792-3.17 .597-1.719 0 0 0M0-4.628C-2.099-4.628-4.021-4.192-5.766-3.319-7.511-2.447-8.914-1.166-9.976 .522-11.039 2.21-11.57 4.154-11.57 6.354-11.57 8.554-11.039 10.501-9.976 12.196-8.914 13.89-7.511 15.173-5.766 16.046-4.021 16.918-2.099 17.354 0 17.354 2.086 17.354 4.002 16.918 5.747 16.046 7.492 15.173 8.898 13.89 9.967 12.196 11.036 10.501 11.57 8.554 11.57 6.354 11.57 4.154 11.036 2.21 9.967 .522 8.898-1.166 7.492-2.447 5.747-3.319 4.002-4.192 2.086-4.628 0-4.628" fill="#1d5532"/>
<path transform="matrix(2.7777777,0,0,-2.7777777,610.94668,186.78639)" d="M0 0H5.842L-1.688-21.356H-9.635L-17.127 0H-11.304L-5.652-16.577Z" fill="#1d5532"/>
<path transform="matrix(2.7777777,0,0,-2.7777777,661.7336,234.09749)" d="M0 0C1.72 0 3.171 .597 4.353 1.792 5.536 2.987 6.126 4.511 6.126 6.363 6.126 8.215 5.536 9.736 4.353 10.925 3.171 12.113 1.72 12.708 0 12.708-1.707 12.708-3.145 12.113-4.315 10.925-5.483 9.736-6.069 8.213-6.069 6.354-6.069 4.52-5.481 3.003-4.305 1.802-3.13 .6-1.694 0 0 0M-1.479 17.354C.303 17.354 1.863 17.051 3.196 16.444 4.531 15.837 5.508 14.99 6.126 13.902L6.373 17.032H11.589V-4.324H6.373L6.126-1.176C4.964-3.478 2.428-4.628-1.479-4.628-2.883-4.628-4.201-4.353-5.434-3.803-6.667-3.253-7.731-2.504-8.629-1.555-9.527-.607-10.239 .553-10.763 1.925-11.287 3.297-11.55 4.773-11.55 6.354-11.55 7.934-11.287 9.41-10.763 10.783-10.239 12.154-9.527 13.317-8.629 14.272-7.731 15.227-6.667 15.979-5.434 16.529-4.201 17.079-2.883 17.354-1.479 17.354" fill="#1d5532"/>
</g>
</svg>
