<svg xmlns="http://www.w3.org/2000/svg" xmlns:xlink="http://www.w3.org/1999/xlink" version="1.1" width="694.4444pt" height="416.66667pt" viewBox="0 0 694.4444 416.66667">
<defs>
<clipPath id="clip_1">
<path transform="matrix(2.7777777,0,0,-2.7777777,0,416.66667)" d="M0 150H250V0H0Z"/>
</clipPath>
</defs>
<g clip-path="url(#clip_1)">
<path transform="matrix(2.7777777,0,0,-2.7777777,134.48667,192.92388)" d="M0 0H6.52L6.803-3.331C7.874-1.929 9.121-.957 10.547-.413 11.973 .13 13.858 .402 16.204 .402V-5.386C13.213-5.386 10.898-6.099 9.26-7.523 7.622-8.949 6.803-10.874 6.803-13.299V-26.598H0Z" fill="#1d5532"/>
<path transform="matrix(2.7777777,0,0,-2.7777777,223.65805,206.83415)" d="M0 0C-1.89 0-3.5-.555-4.831-1.665-6.162-2.776-7.007-4.276-7.37-6.165H7.394C7.016-4.276 6.165-2.776 4.842-1.665 3.52-.555 1.905 0 0 0M0 5.409C2.111 5.409 4.066 5.039 5.87 4.299 7.673 3.559 9.209 2.516 10.476 1.169 11.743-.177 12.708-1.847 13.37-3.839 14.031-5.831 14.291-8.024 14.149-10.417H-7.37C-6.96-12.291-6.079-13.787-4.724-14.905-3.37-16.024-1.795-16.582 0-16.582 1.559-16.582 2.941-16.185 4.146-15.389 5.35-14.595 6.283-13.48 6.945-12.047L12.779-14.834C11.583-17.055 9.835-18.799 7.535-20.067 5.236-21.334 2.725-21.968 0-21.968-2.614-21.968-5.004-21.425-7.169-20.338-9.334-19.252-11.079-17.657-12.401-15.555-13.724-13.452-14.386-11.031-14.386-8.291-14.386-5.551-13.724-3.126-12.401-1.016-11.079 1.094-9.334 2.693-7.169 3.779-5.004 4.866-2.614 5.409 0 5.409" fill="#1d5532"/>
<path transform="matrix(2.7777777,0,0,-2.7777777,313.5514,206.83415)" d="M0 0C-1.89 0-3.5-.555-4.831-1.665-6.162-2.776-7.007-4.276-7.37-6.165H7.394C7.016-4.276 6.165-2.776 4.842-1.665 3.52-.555 1.905 0 0 0M0 5.409C2.111 5.409 4.066 5.039 5.87 4.299 7.673 3.559 9.209 2.516 10.476 1.169 11.743-.177 12.708-1.847 13.37-3.839 14.031-5.831 14.291-8.024 14.149-10.417H-7.37C-6.96-12.291-6.079-13.787-4.724-14.905-3.37-16.024-1.795-16.582 0-16.582 1.559-16.582 2.941-16.185 4.146-15.389 5.35-14.595 6.283-13.48 6.945-12.047L12.779-14.834C11.583-17.055 9.835-18.799 7.535-20.067 5.236-21.334 2.725-21.968 0-21.968-2.614-21.968-5.004-21.425-7.169-20.338-9.334-19.252-11.079-17.657-12.401-15.555-13.724-13.452-14.386-11.031-14.386-8.291-14.386-5.551-13.724-3.126-12.401-1.016-11.079 1.094-9.334 2.693-7.169 3.779-5.004 4.866-2.614 5.409 0 5.409" fill="#1d5532"/>
<path transform="matrix(2.7777777,0,0,-2.7777777,418.40498,266.80696)" d="M0 0V13.299C0 15.897-.449 17.866-1.346 19.204-2.244 20.543-3.7 21.212-5.716 21.212-7.858 21.212-9.511 20.499-10.677 19.074-11.843 17.649-12.425 15.724-12.425 13.299V0H-19.228V26.598H-12.708L-12.425 22.7C-10.819 25.566-7.819 26.999-3.425 26.999 .197 26.999 2.803 25.834 4.394 23.503 5.985 21.173 6.779 17.771 6.779 13.299V0Z" fill="#1d5532"/>
<path transform="matrix(2.7777777,0,0,-2.7777777,488.81056,251.84639)" d="M0 0C2.111 0 3.909 .748 5.398 2.244 6.886 3.74 7.63 5.634 7.63 7.925 7.63 10.216 6.889 12.106 5.409 13.594 3.929 15.082 2.126 15.826 0 15.826-2.141 15.826-3.948 15.086-5.421 13.606-6.894 12.126-7.63 10.232-7.63 7.925-7.63 5.618-6.894 3.72-5.421 2.232-3.948 .744-2.141 0 0 0M0-5.764C-2.614-5.764-5.008-5.22-7.181-4.134-9.354-3.047-11.102-1.453-12.425 .65-13.748 2.752-14.409 5.173-14.409 7.913-14.409 10.653-13.748 13.078-12.425 15.189-11.102 17.299-9.354 18.897-7.181 19.984-5.008 21.07-2.614 21.614 0 21.614 2.598 21.614 4.984 21.07 7.157 19.984 9.331 18.897 11.082 17.299 12.413 15.189 13.744 13.078 14.409 10.653 14.409 7.913 14.409 5.173 13.744 2.752 12.413 .65 11.082-1.453 9.331-3.047 7.157-4.134 4.984-5.22 2.598-5.764 0-5.764" fill="#1d5532"/>
<path transform="matrix(2.7777777,0,0,-2.7777777,591.2363,192.92388)" d="M0 0H7.275L-2.102-26.598H-12L-21.33 0H-14.078L-7.039-20.645Z" fill="#1d5532"/>
<path transform="matrix(2.7777777,0,0,-2.7777777,654.48806,251.84639)" d="M0 0C2.142 0 3.95 .744 5.421 2.232 6.895 3.72 7.63 5.618 7.63 7.925 7.63 10.232 6.895 12.126 5.421 13.606 3.95 15.086 2.142 15.826 0 15.826-2.126 15.826-3.916 15.086-5.374 13.606-6.829 12.126-7.559 10.228-7.559 7.913-7.559 5.63-6.827 3.74-5.362 2.244-3.898 .748-2.109 0 0 0M-1.842 21.614C.378 21.614 2.32 21.236 3.98 20.48 5.643 19.724 6.86 18.669 7.63 17.315L7.937 21.212H14.433V-5.386H7.937L7.63-1.465C6.182-4.331 3.024-5.764-1.842-5.764-3.59-5.764-5.232-5.421-6.768-4.736-8.303-4.051-9.628-3.118-10.747-1.937-11.866-.756-12.752 .689-13.405 2.398-14.058 4.106-14.385 5.944-14.385 7.913-14.385 9.882-14.058 11.72-13.405 13.429-12.752 15.137-11.866 16.586-10.747 17.775-9.628 18.964-8.303 19.901-6.768 20.586-5.232 21.271-3.59 21.614-1.842 21.614" fill="#1d5532"/>
<path transform="matrix(2.7777777,0,0,-2.7777777,107.123058,197.56249)" d="M0 0C-1.118 0-2.065 .388-2.841 1.165-3.617 1.94-4.005 2.887-4.005 4.006-4.005 5.092-3.617 6.023-2.841 6.8-2.065 7.576-1.118 7.964 0 7.964 1.086 7.964 2.018 7.576 2.794 6.8 3.57 6.023 3.958 5.092 3.958 4.006 3.958 2.887 3.57 1.94 2.794 1.165 2.018 .388 1.086 0 0 0" fill="#1d5532"/>
<path transform="matrix(2.7777777,0,0,-2.7777777,118.12694,202.84499)" d="M0 0V-23.081H-6.564V-15.655C-6.966-16.302-7.454-16.962-8.014-17.623-10.758-20.812-14.061-22.118-15.411-22.506-16.862-22.923-18.341-23.052-18.37-23.052-19.045-23.081-19.706-23.081-20.366-23.081-22.478-23.081-24.488-22.808-26.399-22.262-28.395-21.53-30.032-20.639-31.368-19.777-32.704-18.887-33.709-18.025-34.456-17.321-42.054-10.126-42.413 1.321-42.542 4.797-42.671 8-42.485 13.128-40.546 19.246-40.503 19.39-40.359 19.476-40.215 19.447-35.749 18.628-31.282 18.054-26.758 17.767-22.061 17.465-17.293 17.264-12.754 15.957-11.964 15.727-11.174 15.555-10.37 15.311L-14.521 8.847C-14.952 8.962-15.584 9.135-16.359 9.321-21.127 10.47-26.068 10.427-30.88 11.347-32.287 11.619-33.695 11.935-35.088 12.28-35.174 12.309-35.26 12.251-35.275 12.165-35.519 10.686-35.792 8.33-35.663 5.444-35.375-.632-32.891-11.059-26.715-13.917-23.67-15.325-20.366-15.268-20.366-15.268-18.786-15.253-17.695-14.966-17.408-14.88-15.325-14.32-13.946-13.257-13.487-12.883-13.444-12.855-13.415-12.826-13.386-12.797-11.95-11.591-11.246-10.269-10.93-9.68-10.327-8.56-10.097-7.598-9.853-6.679-9.709-6.119-9.623-5.659-9.566-5.314-10.786-4.51-12.495-3.548-14.693-2.844-16.934-2.111-18.944-1.867-20.496-1.81-20.496-1.81-20.51-1.81-20.524-1.795-20.539-1.795-20.539-1.767-20.539-1.752L-20.524-1.738C-20.51-1.738-20.51-1.724-20.481-1.724-13.659-1.163-6.822-.574 0 0" fill="#1d5532"/>
</g>
</svg>
